<svg version="1.1" viewBox="0.0 0.0 600.0 371.0" fill="none" stroke="none" stroke-linecap="square" stroke-miterlimit="10" width="600" height="371" xmlns:xlink="http://www.w3.org/1999/xlink" xmlns="http://www.w3.org/2000/svg"><path fill="#ffffff" d="M0 0L600.0 0L600.0 371.0L0 371.0L0 0Z" fill-rule="nonzero"/><path fill="#006848" d="M300.0 54.916668C317.62222 54.916668 335.1043 58.047653 351.6312 64.16365L300.0 203.68333Z" fill-rule="nonzero"/><path fill="#009b6d" d="M351.6312 64.16365C423.90097 90.90809 463.78546 168.41249 443.54132 242.76544C423.29718 317.11838 349.62634 363.705 273.77365 350.12C197.92093 336.53503 144.99773 267.27582 151.81697 190.51851C158.63622 113.76121 222.94038 54.916668 300.0 54.916668L300.0 203.68333Z" fill-rule="nonzero"/><path fill="#1a1a1a" d="M19.471874 332.45L19.471874 323.85626L22.440624 323.85626Q23.440624 323.85626 23.971874 323.98126Q24.70625 324.15314 25.221874 324.59064Q25.909374 325.16876 26.2375 326.075Q26.58125 326.96564 26.58125 328.10626Q26.58125 329.09064 26.346874 329.84064Q26.128124 330.59064 25.76875 331.09064Q25.409374 331.59064 24.971874 331.8719Q24.55 332.15314 23.95625 332.3094Q23.3625 332.45 22.58125 332.45L19.471874 332.45ZM20.6125 331.4344L22.440624 331.4344Q23.3 331.4344 23.784374 331.27814Q24.26875 331.1219 24.55 330.825Q24.95625 330.4344 25.175 329.7469Q25.409374 329.0594 25.409374 328.09064Q25.409374 326.7469 24.95625 326.02814Q24.51875 325.29376 23.89375 325.04376Q23.425 324.8719 22.425 324.8719L20.6125 324.8719L20.6125 331.4344ZM32.409374 331.6844Q31.815624 332.1844 31.26875 332.3875Q30.7375 332.59064 30.1125 332.59064Q29.08125 332.59064 28.534374 332.09064Q27.9875 331.59064 27.9875 330.8094Q27.9875 330.35626 28.190624 329.98126Q28.39375 329.59064 28.7375 329.3719Q29.08125 329.1375 29.503124 329.02814Q29.8 328.9344 30.440624 328.85626Q31.70625 328.71564 32.315624 328.4969Q32.315624 328.27814 32.315624 328.23126Q32.315624 327.575 32.01875 327.3094Q31.6125 326.96564 30.815624 326.96564Q30.08125 326.96564 29.721874 327.23126Q29.3625 327.48126 29.190624 328.1375L28.159374 327.9969Q28.3 327.34064 28.628124 326.9344Q28.95625 326.52814 29.565624 326.3094Q30.175 326.09064 30.971874 326.09064Q31.76875 326.09064 32.26875 326.27814Q32.76875 326.46564 33.003124 326.7469Q33.2375 327.02814 33.33125 327.46564Q33.378124 327.73126 33.378124 328.4344L33.378124 329.84064Q33.378124 331.3094 33.440624 331.7Q33.51875 332.09064 33.721874 332.45L32.6125 332.45Q32.45625 332.1219 32.409374 331.6844ZM32.315624 329.325Q31.7375 329.5594 30.596874 329.73126Q29.940624 329.825 29.675 329.95Q29.409374 330.0594 29.253124 330.27814Q29.1125 330.4969 29.1125 330.77814Q29.1125 331.2 29.425 331.48126Q29.753124 331.7625 30.3625 331.7625Q30.971874 331.7625 31.440624 331.4969Q31.925 331.23126 32.14375 330.7625Q32.315624 330.40314 32.315624 329.71564L32.315624 329.325ZM35.3 334.84064L35.175 333.85626Q35.51875 333.95 35.784374 333.95Q36.128124 333.95 36.33125 333.825Q36.55 333.71564 36.690624 333.5125Q36.784374 333.34064 37.01875 332.71564Q37.034374 332.6375 37.1125 332.46564L34.7375 326.23126L35.878124 326.23126L37.175 329.825Q37.425 330.5125 37.628124 331.27814Q37.815624 330.54376 38.065624 329.85626L39.39375 326.23126L40.440624 326.23126L38.08125 332.5594Q37.690624 333.575 37.4875 333.96564Q37.20625 334.4969 36.83125 334.73126Q36.471874 334.98126 35.971874 334.98126Q35.675 334.98126 35.3 334.84064ZM39.925 330.59064L40.95625 330.4344Q41.05 331.0594 41.440624 331.3875Q41.846874 331.71564 42.58125 331.71564Q43.3 331.71564 43.64375 331.4344Q44.003124 331.1375 44.003124 330.73126Q44.003124 330.3719 43.690624 330.16876Q43.471874 330.02814 42.6125 329.8094Q41.45625 329.5125 41.003124 329.3094Q40.565624 329.09064 40.33125 328.71564Q40.096874 328.34064 40.096874 327.8719Q40.096874 327.46564 40.284374 327.10626Q40.471874 326.7469 40.8 326.5125Q41.05 326.34064 41.471874 326.21564Q41.89375 326.09064 42.39375 326.09064Q43.1125 326.09064 43.659374 326.3094Q44.221874 326.5125 44.4875 326.8719Q44.753124 327.23126 44.846874 327.825L43.815624 327.96564Q43.753124 327.4969 43.409374 327.23126Q43.08125 326.95 42.45625 326.95Q41.7375 326.95 41.425 327.2Q41.1125 327.4344 41.1125 327.7625Q41.1125 327.96564 41.2375 328.1219Q41.378124 328.29376 41.64375 328.40314Q41.8 328.46564 42.58125 328.66876Q43.70625 328.98126 44.14375 329.16876Q44.58125 329.35626 44.83125 329.71564Q45.08125 330.075 45.08125 330.6219Q45.08125 331.15314 44.76875 331.6219Q44.471874 332.075 43.89375 332.34064Q43.315624 332.59064 42.58125 332.59064Q41.3625 332.59064 40.721874 332.09064Q40.096874 331.575 39.925 330.59064ZM50.346874 325.075L50.346874 323.85626L51.409374 323.85626L51.409374 325.075L50.346874 325.075ZM50.346874 332.45L50.346874 326.23126L51.409374 326.23126L51.409374 332.45L50.346874 332.45ZM53.346874 332.45L53.346874 326.23126L54.284374 326.23126L54.284374 327.10626Q54.971874 326.09064 56.26875 326.09064Q56.83125 326.09064 57.3 326.29376Q57.784374 326.4969 58.01875 326.825Q58.253124 327.15314 58.346874 327.59064Q58.39375 327.8875 58.39375 328.6219L58.39375 332.45L57.346874 332.45L57.346874 328.66876Q57.346874 328.0125 57.221874 327.7Q57.096874 327.3875 56.784374 327.2Q56.471874 326.9969 56.05 326.9969Q55.378124 326.9969 54.878124 327.4344Q54.39375 327.85626 54.39375 329.04376L54.39375 332.45L53.346874 332.45ZM69.6125 329.4344L70.7375 329.73126Q70.37813 331.1219 69.45625 331.85626Q68.53438 332.59064 67.19063 332.59064Q65.8 332.59064 64.925 332.02814Q64.05 331.46564 63.596874 330.40314Q63.14375 329.325 63.14375 328.09064Q63.14375 326.7469 63.659374 325.7469Q64.175 324.7469 65.1125 324.23126Q66.06563 323.71564 67.20625 323.71564Q68.4875 323.71564 69.3625 324.3719Q70.25313 325.02814 70.59688 326.21564L69.47188 326.48126Q69.175 325.54376 68.59688 325.1219Q68.03438 324.6844 67.175 324.6844Q66.19063 324.6844 65.51875 325.16876Q64.8625 325.6375 64.58125 326.4344Q64.31563 327.23126 64.31563 328.09064Q64.31563 329.1844 64.62813 329.9969Q64.95625 330.8094 65.62813 331.21564Q66.3 331.6219 67.09688 331.6219Q68.05 331.6219 68.70625 331.075Q69.37813 330.52814 69.6125 329.4344ZM72.31563 332.45L72.31563 323.85626L73.37813 323.85626L73.37813 332.45L72.31563 332.45ZM79.40938 331.6844Q78.81563 332.1844 78.26875 332.3875Q77.7375 332.59064 77.1125 332.59064Q76.08125 332.59064 75.53438 332.09064Q74.9875 331.59064 74.9875 330.8094Q74.9875 330.35626 75.19063 329.98126Q75.39375 329.59064 75.7375 329.3719Q76.08125 329.1375 76.50313 329.02814Q76.8 328.9344 77.44063 328.85626Q78.70625 328.71564 79.31563 328.4969Q79.31563 328.27814 79.31563 328.23126Q79.31563 327.575 79.01875 327.3094Q78.6125 326.96564 77.81563 326.96564Q77.08125 326.96564 76.72188 327.23126Q76.3625 327.48126 76.19063 328.1375L75.15938 327.9969Q75.3 327.34064 75.62813 326.9344Q75.95625 326.52814 76.56563 326.3094Q77.175 326.09064 77.97188 326.09064Q78.76875 326.09064 79.26875 326.27814Q79.76875 326.46564 80.00313 326.7469Q80.2375 327.02814 80.33125 327.46564Q80.37813 327.73126 80.37813 328.4344L80.37813 329.84064Q80.37813 331.3094 80.44063 331.7Q80.51875 332.09064 80.72188 332.45L79.6125 332.45Q79.45625 332.1219 79.40938 331.6844ZM79.31563 329.325Q78.7375 329.5594 77.59688 329.73126Q76.94063 329.825 76.675 329.95Q76.40938 330.0594 76.25313 330.27814Q76.1125 330.4969 76.1125 330.77814Q76.1125 331.2 76.425 331.48126Q76.75313 331.7625 77.3625 331.7625Q77.97188 331.7625 78.44063 331.4969Q78.925 331.23126 79.14375 330.7625Q79.31563 330.40314 79.31563 329.71564L79.31563 329.325ZM81.925 330.59064L82.95625 330.4344Q83.05 331.0594 83.44063 331.3875Q83.84688 331.71564 84.58125 331.71564Q85.3 331.71564 85.64375 331.4344Q86.00313 331.1375 86.00313 330.73126Q86.00313 330.3719 85.69063 330.16876Q85.47188 330.02814 84.6125 329.8094Q83.45625 329.5125 83.00313 329.3094Q82.56563 329.09064 82.33125 328.71564Q82.09688 328.34064 82.09688 327.8719Q82.09688 327.46564 82.28438 327.10626Q82.47188 326.7469 82.8 326.5125Q83.05 326.34064 83.47188 326.21564Q83.89375 326.09064 84.39375 326.09064Q85.1125 326.09064 85.65938 326.3094Q86.22188 326.5125 86.4875 326.8719Q86.75313 327.23126 86.84688 327.825L85.81563 327.96564Q85.75313 327.4969 85.40938 327.23126Q85.08125 326.95 84.45625 326.95Q83.7375 326.95 83.425 327.2Q83.1125 327.4344 83.1125 327.7625Q83.1125 327.96564 83.2375 328.1219Q83.37813 328.29376 83.64375 328.40314Q83.8 328.46564 84.58125 328.66876Q85.70625 328.98126 86.14375 329.16876Q86.58125 329.35626 86.83125 329.71564Q87.08125 330.075 87.08125 330.6219Q87.08125 331.15314 86.76875 331.6219Q86.47188 332.075 85.89375 332.34064Q85.31563 332.59064 84.58125 332.59064Q83.3625 332.59064 82.72188 332.09064Q82.09688 331.575 81.925 330.59064ZM88.925 330.59064L89.95625 330.4344Q90.05 331.0594 90.44063 331.3875Q90.84688 331.71564 91.58125 331.71564Q92.3 331.71564 92.64375 331.4344Q93.00313 331.1375 93.00313 330.73126Q93.00313 330.3719 92.69063 330.16876Q92.47188 330.02814 91.6125 329.8094Q90.45625 329.5125 90.00313 329.3094Q89.56563 329.09064 89.33125 328.71564Q89.09688 328.34064 89.09688 327.8719Q89.09688 327.46564 89.28438 327.10626Q89.47188 326.7469 89.8 326.5125Q90.05 326.34064 90.47188 326.21564Q90.89375 326.09064 91.39375 326.09064Q92.1125 326.09064 92.65938 326.3094Q93.22188 326.5125 93.4875 326.8719Q93.75313 327.23126 93.84688 327.825L92.81563 327.96564Q92.75313 327.4969 92.40938 327.23126Q92.08125 326.95 91.45625 326.95Q90.7375 326.95 90.425 327.2Q90.1125 327.4344 90.1125 327.7625Q90.1125 327.96564 90.2375 328.1219Q90.37813 328.29376 90.64375 328.40314Q90.8 328.46564 91.58125 328.66876Q92.70625 328.98126 93.14375 329.16876Q93.58125 329.35626 93.83125 329.71564Q94.08125 330.075 94.08125 330.6219Q94.08125 331.15314 93.76875 331.6219Q93.47188 332.075 92.89375 332.34064Q92.31563 332.59064 91.58125 332.59064Q90.3625 332.59064 89.72188 332.09064Q89.09688 331.575 88.925 330.59064Z" fill-rule="nonzero"/><path fill="#9e9e9e" d="M19.20625 347.46564L20.221874 347.3719Q20.346874 348.09064 20.70625 348.41876Q21.08125 348.73126 21.64375 348.73126Q22.128124 348.73126 22.4875 348.5125Q22.8625 348.27814 23.096874 347.91876Q23.33125 347.54376 23.4875 346.91876Q23.64375 346.27814 23.64375 345.6219Q23.64375 345.54376 23.64375 345.40314Q23.33125 345.90314 22.784374 346.23126Q22.2375 346.54376 21.596874 346.54376Q20.51875 346.54376 19.784374 345.77814Q19.05 344.9969 19.05 343.73126Q19.05 342.41876 19.815624 341.6219Q20.596874 340.825 21.753124 340.825Q22.58125 340.825 23.26875 341.27814Q23.971874 341.73126 24.33125 342.575Q24.690624 343.40314 24.690624 344.98126Q24.690624 346.6219 24.33125 347.60626Q23.9875 348.575 23.26875 349.09064Q22.565624 349.59064 21.628124 349.59064Q20.6125 349.59064 19.971874 349.04376Q19.33125 348.48126 19.20625 347.46564ZM23.51875 343.66876Q23.51875 342.7625 23.034374 342.23126Q22.565624 341.7 21.878124 341.7Q21.175 341.7 20.64375 342.27814Q20.128124 342.84064 20.128124 343.7625Q20.128124 344.575 20.628124 345.09064Q21.128124 345.60626 21.846874 345.60626Q22.58125 345.60626 23.05 345.09064Q23.51875 344.575 23.51875 343.66876ZM29.425 349.45L29.425 347.3875L25.70625 347.3875L25.70625 346.41876L29.628124 340.85626L30.4875 340.85626L30.4875 346.41876L31.64375 346.41876L31.64375 347.3875L30.4875 347.3875L30.4875 349.45L29.425 349.45ZM29.425 346.41876L29.425 342.5594L26.7375 346.41876L29.425 346.41876ZM33.64375 349.45L33.64375 348.2469L34.846874 348.2469L34.846874 349.45L33.64375 349.45ZM39.425 349.45L39.425 347.3875L35.70625 347.3875L35.70625 346.41876L39.628124 340.85626L40.4875 340.85626L40.4875 346.41876L41.64375 346.41876L41.64375 347.3875L40.4875 347.3875L40.4875 349.45L39.425 349.45ZM39.425 346.41876L39.425 342.5594L36.7375 346.41876L39.425 346.41876ZM43.253124 342.91876Q43.253124 341.9969 43.70625 341.35626Q44.175 340.71564 45.05 340.71564Q45.8625 340.71564 46.39375 341.29376Q46.925 341.8719 46.925 342.98126Q46.925 344.075 46.378124 344.66876Q45.846874 345.2469 45.065624 345.2469Q44.284374 345.2469 43.76875 344.66876Q43.253124 344.09064 43.253124 342.91876ZM45.08125 341.4344Q44.690624 341.4344 44.425 341.77814Q44.175 342.1219 44.175 343.02814Q44.175 343.85626 44.425 344.2Q44.690624 344.52814 45.08125 344.52814Q45.4875 344.52814 45.7375 344.1844Q46.003124 343.84064 46.003124 342.95Q46.003124 342.10626 45.7375 341.77814Q45.471874 341.4344 45.08125 341.4344ZM45.08125 349.7625L49.784374 340.71564L50.64375 340.71564L45.95625 349.7625L45.08125 349.7625ZM48.8 347.4344Q48.8 346.5125 49.253124 345.8719Q49.721874 345.23126 50.6125 345.23126Q51.425 345.23126 51.95625 345.8094Q52.4875 346.3719 52.4875 347.4969Q52.4875 348.59064 51.940624 349.1844Q51.409374 349.7625 50.6125 349.7625Q49.846874 349.7625 49.315624 349.1844Q48.8 348.60626 48.8 347.4344ZM50.64375 345.95Q50.2375 345.95 49.971874 346.29376Q49.721874 346.6375 49.721874 347.54376Q49.721874 348.35626 49.9875 348.7Q50.253124 349.04376 50.64375 349.04376Q51.034374 349.04376 51.3 348.7Q51.565624 348.35626 51.565624 347.45Q51.565624 346.6219 51.3 346.29376Q51.034374 345.95 50.64375 345.95Z" fill-rule="nonzero"/><path stroke="#757575" stroke-width="1.0" stroke-linecap="butt" d="M18.55 336.95L145.23334 336.95L275.08496 342.7982" fill-rule="nonzero"/><path fill="#9e9e9e" d="M277.08496 342.7982C277.08496 341.6936 276.18954 340.7982 275.08496 340.7982C273.9804 340.7982 273.08496 341.6936 273.08496 342.7982C273.08496 343.90274 273.9804 344.7982 275.08496 344.7982C276.18954 344.7982 277.08496 343.90274 277.08496 342.7982" fill-rule="nonzero"/><path fill="#1a1a1a" d="M512.5125 62.90104L513.6375 63.197914Q513.27814 64.58854 512.35626 65.322914Q511.4344 66.05729 510.09064 66.05729Q508.7 66.05729 507.825 65.49479Q506.95 64.93229 506.4969 63.86979Q506.04376 62.791664 506.04376 61.55729Q506.04376 60.21354 506.5594 59.21354Q507.075 58.21354 508.0125 57.697914Q508.96564 57.18229 510.10626 57.18229Q511.3875 57.18229 512.2625 57.83854Q513.15314 58.49479 513.4969 59.68229L512.3719 59.947914Q512.075 59.010414 511.4969 58.58854Q510.9344 58.15104 510.075 58.15104Q509.09064 58.15104 508.41876 58.635414Q507.7625 59.104164 507.48126 59.90104Q507.21564 60.697914 507.21564 61.55729Q507.21564 62.65104 507.52814 63.46354Q507.85626 64.27604 508.52814 64.68229Q509.2 65.08854 509.9969 65.08854Q510.95 65.08854 511.60626 64.541664Q512.27814 63.99479 512.5125 62.90104ZM519.3094 65.15104Q518.71564 65.65104 518.16876 65.854164Q517.6375 66.05729 517.0125 66.05729Q515.98126 66.05729 515.4344 65.55729Q514.8875 65.05729 514.8875 64.27604Q514.8875 63.822914 515.09064 63.447914Q515.29376 63.05729 515.6375 62.83854Q515.98126 62.604164 516.40314 62.49479Q516.7 62.40104 517.34064 62.322914Q518.60626 62.18229 519.21564 61.96354Q519.21564 61.74479 519.21564 61.697914Q519.21564 61.041664 518.91876 60.77604Q518.5125 60.43229 517.71564 60.43229Q516.98126 60.43229 516.6219 60.697914Q516.2625 60.947914 516.09064 61.604164L515.0594 61.46354Q515.2 60.80729 515.52814 60.40104Q515.85626 59.99479 516.46564 59.77604Q517.075 59.55729 517.8719 59.55729Q518.66876 59.55729 519.16876 59.74479Q519.66876 59.93229 519.90314 60.21354Q520.1375 60.49479 520.23126 60.93229Q520.27814 61.197914 520.27814 61.90104L520.27814 63.30729Q520.27814 64.77604 520.34064 65.166664Q520.41876 65.55729 520.6219 65.916664L519.5125 65.916664Q519.35626 65.58854 519.3094 65.15104ZM519.21564 62.791664Q518.6375 63.02604 517.4969 63.197914Q516.84064 63.291664 516.575 63.416664Q516.3094 63.52604 516.15314 63.74479Q516.0125 63.96354 516.0125 64.24479Q516.0125 64.666664 516.325 64.947914Q516.65314 65.229164 517.2625 65.229164Q517.8719 65.229164 518.34064 64.96354Q518.825 64.697914 519.04376 64.229164Q519.21564 63.86979 519.21564 63.18229L519.21564 62.791664ZM522.2469 65.916664L522.2469 59.697914L523.1844 59.697914L523.1844 60.572914Q523.8719 59.55729 525.16876 59.55729Q525.73126 59.55729 526.2 59.760414Q526.6844 59.96354 526.91876 60.291664Q527.15314 60.61979 527.2469 61.05729Q527.29376 61.354164 527.29376 62.08854L527.29376 65.916664L526.2469 65.916664L526.2469 62.135414Q526.2469 61.479164 526.1219 61.166664Q525.9969 60.854164 525.6844 60.666664Q525.3719 60.46354 524.95 60.46354Q524.27814 60.46354 523.77814 60.90104Q523.29376 61.322914 523.29376 62.510414L523.29376 65.916664L522.2469 65.916664ZM533.3094 63.635414L534.34064 63.77604Q534.16876 64.83854 533.46564 65.447914Q532.7625 66.05729 531.7469 66.05729Q530.46564 66.05729 529.6844 65.229164Q528.91876 64.385414 528.91876 62.822914Q528.91876 61.822914 529.2469 61.072914Q529.59064 60.30729 530.2625 59.93229Q530.95 59.55729 531.7625 59.55729Q532.7625 59.55729 533.40314 60.072914Q534.0594 60.572914 534.2469 61.52604L533.21564 61.68229Q533.075 61.05729 532.7 60.74479Q532.325 60.416664 531.79376 60.416664Q530.9969 60.416664 530.4969 60.99479Q529.9969 61.55729 529.9969 62.791664Q529.9969 64.05729 530.48126 64.61979Q530.96564 65.18229 531.73126 65.18229Q532.35626 65.18229 532.7625 64.80729Q533.1844 64.43229 533.3094 63.635414ZM539.4969 63.916664L540.59064 64.041664Q540.34064 64.99479 539.6375 65.52604Q538.9344 66.05729 537.85626 66.05729Q536.4969 66.05729 535.6844 65.21354Q534.8875 64.36979 534.8875 62.854164Q534.8875 61.291664 535.7 60.43229Q536.5125 59.55729 537.79376 59.55729Q539.04376 59.55729 539.825 60.40104Q540.6219 61.24479 540.6219 62.791664Q540.6219 62.885414 540.6219 63.072914L535.98126 63.072914Q536.04376 64.104164 536.5594 64.65104Q537.075 65.18229 537.85626 65.18229Q538.4344 65.18229 538.84064 64.885414Q539.2625 64.572914 539.4969 63.916664ZM536.04376 62.21354L539.5125 62.21354Q539.45 61.416664 539.1219 61.02604Q538.60626 60.416664 537.8094 60.416664Q537.075 60.416664 536.575 60.90104Q536.09064 61.385414 536.04376 62.21354ZM542.21564 65.916664L542.21564 57.322914L543.27814 57.322914L543.27814 65.916664L542.21564 65.916664ZM545.21564 65.916664L545.21564 57.322914L546.27814 57.322914L546.27814 65.916664L545.21564 65.916664ZM552.3094 65.15104Q551.71564 65.65104 551.16876 65.854164Q550.6375 66.05729 550.0125 66.05729Q548.98126 66.05729 548.4344 65.55729Q547.8875 65.05729 547.8875 64.27604Q547.8875 63.822914 548.09064 63.447914Q548.29376 63.05729 548.6375 62.83854Q548.98126 62.604164 549.40314 62.49479Q549.7 62.40104 550.34064 62.322914Q551.60626 62.18229 552.21564 61.96354Q552.21564 61.74479 552.21564 61.697914Q552.21564 61.041664 551.91876 60.77604Q551.5125 60.43229 550.71564 60.43229Q549.98126 60.43229 549.6219 60.697914Q549.2625 60.947914 549.09064 61.604164L548.0594 61.46354Q548.2 60.80729 548.52814 60.40104Q548.85626 59.99479 549.46564 59.77604Q550.075 59.55729 550.8719 59.55729Q551.66876 59.55729 552.16876 59.74479Q552.66876 59.93229 552.90314 60.21354Q553.1375 60.49479 553.23126 60.93229Q553.27814 61.197914 553.27814 61.90104L553.27814 63.30729Q553.27814 64.77604 553.34064 65.166664Q553.41876 65.55729 553.6219 65.916664L552.5125 65.916664Q552.35626 65.58854 552.3094 65.15104ZM552.21564 62.791664Q551.6375 63.02604 550.4969 63.197914Q549.84064 63.291664 549.575 63.416664Q549.3094 63.52604 549.15314 63.74479Q549.0125 63.96354 549.0125 64.24479Q549.0125 64.666664 549.325 64.947914Q549.65314 65.229164 550.2625 65.229164Q550.8719 65.229164 551.34064 64.96354Q551.825 64.697914 552.04376 64.229164Q552.21564 63.86979 552.21564 63.18229L552.21564 62.791664ZM557.54376 64.979164L557.7 65.90104Q557.2469 65.99479 556.90314 65.99479Q556.325 65.99479 556.0125 65.822914Q555.7 65.635414 555.5594 65.33854Q555.4344 65.041664 555.4344 64.08854L555.4344 60.510414L554.66876 60.510414L554.66876 59.697914L555.4344 59.697914L555.4344 58.15104L556.48126 57.52604L556.48126 59.697914L557.54376 59.697914L557.54376 60.510414L556.48126 60.510414L556.48126 64.15104Q556.48126 64.604164 556.52814 64.729164Q556.59064 64.854164 556.71564 64.93229Q556.84064 65.010414 557.075 65.010414Q557.2625 65.010414 557.54376 64.979164ZM558.2469 58.541664L558.2469 57.322914L559.3094 57.322914L559.3094 58.541664L558.2469 58.541664ZM558.2469 65.916664L558.2469 59.697914L559.3094 59.697914L559.3094 65.916664L558.2469 65.916664ZM560.85626 62.80729Q560.85626 61.072914 561.8094 60.24479Q562.60626 59.55729 563.7625 59.55729Q565.04376 59.55729 565.85626 60.40104Q566.6844 61.229164 566.6844 62.71354Q566.6844 63.916664 566.325 64.604164Q565.96564 65.291664 565.2625 65.68229Q564.575 66.05729 563.7625 66.05729Q562.46564 66.05729 561.65314 65.229164Q560.85626 64.385414 560.85626 62.80729ZM561.9344 62.80729Q561.9344 63.99479 562.45 64.58854Q562.98126 65.18229 563.7625 65.18229Q564.5594 65.18229 565.075 64.58854Q565.59064 63.99479 565.59064 62.77604Q565.59064 61.61979 565.0594 61.02604Q564.54376 60.43229 563.7625 60.43229Q562.98126 60.43229 562.45 61.02604Q561.9344 61.604164 561.9344 62.80729ZM568.2469 65.916664L568.2469 59.697914L569.1844 59.697914L569.1844 60.572914Q569.8719 59.55729 571.16876 59.55729Q571.73126 59.55729 572.2 59.760414Q572.6844 59.96354 572.91876 60.291664Q573.15314 60.61979 573.2469 61.05729Q573.29376 61.354164 573.29376 62.08854L573.29376 65.916664L572.2469 65.916664L572.2469 62.135414Q572.2469 61.479164 572.1219 61.166664Q571.9969 60.854164 571.6844 60.666664Q571.3719 60.46354 570.95 60.46354Q570.27814 60.46354 569.77814 60.90104Q569.29376 61.322914 569.29376 62.510414L569.29376 65.916664L568.2469 65.916664ZM574.825 64.05729L575.85626 63.90104Q575.95 64.52604 576.34064 64.854164Q576.7469 65.18229 577.48126 65.18229Q578.2 65.18229 578.54376 64.90104Q578.90314 64.604164 578.90314 64.197914Q578.90314 63.83854 578.59064 63.635414Q578.3719 63.49479 577.5125 63.27604Q576.35626 62.979164 575.90314 62.77604Q575.46564 62.55729 575.23126 62.18229Q574.9969 61.80729 574.9969 61.33854Q574.9969 60.93229 575.1844 60.572914Q575.3719 60.21354 575.7 59.979164Q575.95 59.80729 576.3719 59.68229Q576.79376 59.55729 577.29376 59.55729Q578.0125 59.55729 578.5594 59.77604Q579.1219 59.979164 579.3875 60.33854Q579.65314 60.697914 579.7469 61.291664L578.71564 61.43229Q578.65314 60.96354 578.3094 60.697914Q577.98126 60.416664 577.35626 60.416664Q576.6375 60.416664 576.325 60.666664Q576.0125 60.90104 576.0125 61.229164Q576.0125 61.43229 576.1375 61.58854Q576.27814 61.760414 576.54376 61.86979Q576.7 61.93229 577.48126 62.135414Q578.60626 62.447914 579.04376 62.635414Q579.48126 62.822914 579.73126 63.18229Q579.98126 63.541664 579.98126 64.08854Q579.98126 64.61979 579.66876 65.08854Q579.3719 65.541664 578.79376 65.80729Q578.21564 66.05729 577.48126 66.05729Q576.2625 66.05729 575.6219 65.55729Q574.9969 65.041664 574.825 64.05729Z" fill-rule="nonzero"/><path fill="#9e9e9e" d="M553.95 80.666664L555.0594 80.572914Q555.1844 81.385414 555.6219 81.791664Q556.075 82.197914 556.71564 82.197914Q557.46564 82.197914 557.9969 81.61979Q558.52814 81.041664 558.52814 80.104164Q558.52814 79.197914 558.0125 78.68229Q557.5125 78.15104 556.6844 78.15104Q556.1844 78.15104 555.7625 78.385414Q555.35626 78.61979 555.1219 78.979164L554.1375 78.854164L554.96564 74.447914L559.2469 74.447914L559.2469 75.447914L555.8094 75.447914L555.35626 77.760414Q556.1219 77.21354 556.96564 77.21354Q558.09064 77.21354 558.85626 77.99479Q559.6375 78.77604 559.6375 80.010414Q559.6375 81.166664 558.96564 82.02604Q558.1375 83.05729 556.71564 83.05729Q555.54376 83.05729 554.79376 82.40104Q554.0594 81.74479 553.95 80.666664ZM561.54376 82.916664L561.54376 81.71354L562.7469 81.71354L562.7469 82.916664L561.54376 82.916664ZM569.41876 76.43229L568.3719 76.510414Q568.23126 75.885414 567.98126 75.604164Q567.54376 75.15104 566.91876 75.15104Q566.41876 75.15104 566.02814 75.43229Q565.54376 75.80729 565.2469 76.510414Q564.96564 77.197914 564.95 78.479164Q565.325 77.90104 565.8719 77.61979Q566.4344 77.33854 567.04376 77.33854Q568.09064 77.33854 568.825 78.11979Q569.575 78.90104 569.575 80.11979Q569.575 80.93229 569.21564 81.635414Q568.8719 82.322914 568.2625 82.697914Q567.65314 83.05729 566.8875 83.05729Q565.5594 83.05729 564.73126 82.08854Q563.90314 81.11979 563.90314 78.90104Q563.90314 76.40104 564.825 75.27604Q565.6219 74.291664 566.98126 74.291664Q567.9969 74.291664 568.6375 74.86979Q569.29376 75.43229 569.41876 76.43229ZM565.1219 80.135414Q565.1219 80.68229 565.34064 81.18229Q565.575 81.666664 565.98126 81.93229Q566.40314 82.197914 566.8719 82.197914Q567.52814 82.197914 568.0125 81.666664Q568.4969 81.11979 568.4969 80.197914Q568.4969 79.30729 568.0125 78.791664Q567.54376 78.27604 566.825 78.27604Q566.10626 78.27604 565.60626 78.791664Q565.1219 79.30729 565.1219 80.135414ZM571.15314 76.385414Q571.15314 75.46354 571.60626 74.822914Q572.075 74.18229 572.95 74.18229Q573.7625 74.18229 574.29376 74.760414Q574.825 75.33854 574.825 76.447914Q574.825 77.541664 574.27814 78.135414Q573.7469 78.71354 572.96564 78.71354Q572.1844 78.71354 571.66876 78.135414Q571.15314 77.55729 571.15314 76.385414ZM572.98126 74.90104Q572.59064 74.90104 572.325 75.24479Q572.075 75.58854 572.075 76.49479Q572.075 77.322914 572.325 77.666664Q572.59064 77.99479 572.98126 77.99479Q573.3875 77.99479 573.6375 77.65104Q573.90314 77.30729 573.90314 76.416664Q573.90314 75.572914 573.6375 75.24479Q573.3719 74.90104 572.98126 74.90104ZM572.98126 83.229164L577.6844 74.18229L578.54376 74.18229L573.85626 83.229164L572.98126 83.229164ZM576.7 80.90104Q576.7 79.979164 577.15314 79.33854Q577.6219 78.697914 578.5125 78.697914Q579.325 78.697914 579.85626 79.27604Q580.3875 79.83854 580.3875 80.96354Q580.3875 82.05729 579.84064 82.65104Q579.3094 83.229164 578.5125 83.229164Q577.7469 83.229164 577.21564 82.65104Q576.7 82.072914 576.7 80.90104ZM578.54376 79.416664Q578.1375 79.416664 577.8719 79.760414Q577.6219 80.104164 577.6219 81.010414Q577.6219 81.822914 577.8875 82.166664Q578.15314 82.510414 578.54376 82.510414Q578.9344 82.510414 579.2 82.166664Q579.46564 81.822914 579.46564 80.916664Q579.46564 80.08854 579.2 79.760414Q578.9344 79.416664 578.54376 79.416664Z" fill-rule="nonzero"/><path stroke="#757575" stroke-width="1.0" stroke-linecap="butt" d="M581.45 70.416664L454.76666 70.416664L324.91504 64.5685" fill-rule="nonzero"/><path fill="#9e9e9e" d="M326.91504 64.5685C326.91504 63.463924 326.0196 62.568493 324.91504 62.568493C323.81046 62.568493 322.91504 63.463924 322.91504 64.5685C322.91504 65.673065 323.81046 66.5685 324.91504 66.5685C326.0196 66.5685 326.91504 65.673065 326.91504 64.5685" fill-rule="nonzero"/><path fill="#757575" d="M28.6125 35.8625L28.6125 37.55L19.159374 37.55Q19.14375 36.909374 19.3625 36.33125Q19.721874 35.3625 20.51875 34.425Q21.315624 33.4875 22.815624 32.253124Q25.159374 30.346874 25.971874 29.2375Q26.8 28.1125 26.8 27.1125Q26.8 26.065624 26.05 25.346874Q25.3 24.628124 24.096874 24.628124Q22.83125 24.628124 22.065624 25.39375Q21.3 26.159374 21.3 27.503124L19.4875 27.315624Q19.675 25.3 20.878124 24.2375Q22.096874 23.175 24.14375 23.175Q26.190624 23.175 27.39375 24.315624Q28.596874 25.45625 28.596874 27.14375Q28.596874 28.003124 28.2375 28.846874Q27.89375 29.675 27.08125 30.596874Q26.26875 31.503124 24.378124 33.1125Q22.784374 34.440624 22.33125 34.909374Q21.89375 35.378124 21.596874 35.8625L28.6125 35.8625ZM30.378124 30.4875Q30.378124 27.95625 30.89375 26.409374Q31.425 24.846874 32.45625 24.01875Q33.4875 23.175 35.05 23.175Q36.20625 23.175 37.065624 23.64375Q37.940624 24.096874 38.503124 24.971874Q39.065624 25.846874 39.39375 27.1125Q39.721874 28.3625 39.721874 30.4875Q39.721874 33.003124 39.190624 34.55Q38.675 36.096874 37.64375 36.95625Q36.628124 37.8 35.05 37.8Q32.971874 37.8 31.8 36.315624Q30.378124 34.51875 30.378124 30.4875ZM32.190624 30.4875Q32.190624 34.01875 33.003124 35.190624Q33.83125 36.346874 35.05 36.346874Q36.253124 36.346874 37.08125 35.175Q37.909374 34.003124 37.909374 30.4875Q37.909374 26.95625 37.08125 25.8Q36.253124 24.628124 35.034374 24.628124Q33.815624 24.628124 33.096874 25.659374Q32.190624 26.95625 32.190624 30.4875ZM48.003124 37.55L46.2375 37.55L46.2375 26.346874Q45.6125 26.95625 44.58125 27.565624Q43.55 28.159374 42.721874 28.471874L42.721874 26.76875Q44.20625 26.08125 45.3 25.096874Q46.409374 24.096874 46.8625 23.175L48.003124 23.175L48.003124 37.55ZM61.503124 26.7375L59.753124 26.878124Q59.51875 25.846874 59.096874 25.378124Q58.378124 24.6125 57.33125 24.6125Q56.4875 24.6125 55.8625 25.08125Q55.034374 25.690624 54.55 26.8625Q54.065624 28.01875 54.05 30.159374Q54.690624 29.20625 55.596874 28.7375Q56.51875 28.26875 57.534374 28.26875Q59.284374 28.26875 60.51875 29.565624Q61.753124 30.846874 61.753124 32.89375Q61.753124 34.253124 61.175 35.409374Q60.596874 36.565624 59.58125 37.190624Q58.565624 37.8 57.26875 37.8Q55.08125 37.8 53.690624 36.190624Q52.3 34.565624 52.3 30.846874Q52.3 26.70625 53.83125 24.815624Q55.175 23.175 57.440624 23.175Q59.128124 23.175 60.20625 24.128124Q61.284374 25.065624 61.503124 26.7375ZM54.33125 32.909374Q54.33125 33.815624 54.70625 34.64375Q55.096874 35.471874 55.784374 35.909374Q56.4875 36.346874 57.2375 36.346874Q58.3625 36.346874 59.159374 35.45625Q59.95625 34.55 59.95625 33.003124Q59.95625 31.51875 59.159374 30.675Q58.378124 29.815624 57.175 29.815624Q55.9875 29.815624 55.159374 30.675Q54.33125 31.51875 54.33125 32.909374ZM63.190624 33.253124L63.190624 31.4875L68.58125 31.4875L68.58125 33.253124L63.190624 33.253124ZM79.6125 35.8625L79.6125 37.55L70.15938 37.55Q70.14375 36.909374 70.3625 36.33125Q70.72188 35.3625 71.51875 34.425Q72.31563 33.4875 73.81563 32.253124Q76.15938 30.346874 76.97188 29.2375Q77.8 28.1125 77.8 27.1125Q77.8 26.065624 77.05 25.346874Q76.3 24.628124 75.09688 24.628124Q73.83125 24.628124 73.06563 25.39375Q72.3 26.159374 72.3 27.503124L70.4875 27.315624Q70.675 25.3 71.87813 24.2375Q73.09688 23.175 75.14375 23.175Q77.19063 23.175 78.39375 24.315624Q79.59688 25.45625 79.59688 27.14375Q79.59688 28.003124 79.2375 28.846874Q78.89375 29.675 78.08125 30.596874Q77.26875 31.503124 75.37813 33.1125Q73.78438 34.440624 73.33125 34.909374Q72.89375 35.378124 72.59688 35.8625L79.6125 35.8625ZM81.37813 30.4875Q81.37813 27.95625 81.89375 26.409374Q82.425 24.846874 83.45625 24.01875Q84.4875 23.175 86.05 23.175Q87.20625 23.175 88.06563 23.64375Q88.94063 24.096874 89.50313 24.971874Q90.06563 25.846874 90.39375 27.1125Q90.72188 28.3625 90.72188 30.4875Q90.72188 33.003124 90.19063 34.55Q89.675 36.096874 88.64375 36.95625Q87.62813 37.8 86.05 37.8Q83.97188 37.8 82.8 36.315624Q81.37813 34.51875 81.37813 30.4875ZM83.19063 30.4875Q83.19063 34.01875 84.00313 35.190624Q84.83125 36.346874 86.05 36.346874Q87.25313 36.346874 88.08125 35.175Q88.90938 34.003124 88.90938 30.4875Q88.90938 26.95625 88.08125 25.8Q87.25313 24.628124 86.03438 24.628124Q84.81563 24.628124 84.09688 25.659374Q83.19063 26.95625 83.19063 30.4875ZM99.00313 37.55L97.2375 37.55L97.2375 26.346874Q96.6125 26.95625 95.58125 27.565624Q94.55 28.159374 93.72188 28.471874L93.72188 26.76875Q95.20625 26.08125 96.3 25.096874Q97.40938 24.096874 97.8625 23.175L99.00313 23.175L99.00313 37.55ZM103.50313 25.1125L103.50313 23.425L112.76875 23.425L112.76875 24.784374Q111.39375 26.2375 110.05 28.659374Q108.70625 31.065624 107.9875 33.6125Q107.45625 35.409374 107.3 37.55L105.50313 37.55Q105.53438 35.8625 106.15938 33.471874Q106.8 31.08125 107.9875 28.8625Q109.175 26.628124 110.50313 25.1125L103.50313 25.1125Z" fill-rule="nonzero"/></svg>